<mxfile host="app.diagrams.net" agent="Mozilla/5.0 (Windows NT 10.0; Win64; x64) AppleWebKit/537.36 (KHTML, like Gecko) Chrome/128.0.0.0 Safari/537.36 OPR/114.0.0.0" version="24.7.17">
  <diagram id="C5RBs43oDa-KdzZeNtuy" name="Page-1">
    <mxGraphModel dx="3729" dy="763" grid="1" gridSize="10" guides="1" tooltips="1" connect="1" arrows="1" fold="1" page="1" pageScale="1" pageWidth="2336" pageHeight="1654" math="0" shadow="0">
      <root>
        <mxCell id="WIyWlLk6GJQsqaUBKTNV-0" />
        <mxCell id="WIyWlLk6GJQsqaUBKTNV-1" parent="WIyWlLk6GJQsqaUBKTNV-0" />
        <mxCell id="SfpVanDIu_7wecpVr07M-0" value="AsignacionAleatoria" style="swimlane;fontStyle=0;childLayout=stackLayout;horizontal=1;startSize=26;fillColor=none;horizontalStack=0;resizeParent=1;resizeParentMax=0;resizeLast=0;collapsible=1;marginBottom=0;whiteSpace=wrap;html=1;" parent="WIyWlLk6GJQsqaUBKTNV-1" vertex="1">
          <mxGeometry x="-1060" y="260" width="380" height="52" as="geometry" />
        </mxCell>
        <mxCell id="SfpVanDIu_7wecpVr07M-1" value="+ asignarTarea(tarea: Tarea, empleados: List &amp;lt;Empleado&amp;gt;): void" style="text;strokeColor=none;fillColor=none;align=left;verticalAlign=top;spacingLeft=4;spacingRight=4;overflow=hidden;rotatable=0;points=[[0,0.5],[1,0.5]];portConstraint=eastwest;whiteSpace=wrap;html=1;" parent="SfpVanDIu_7wecpVr07M-0" vertex="1">
          <mxGeometry y="26" width="380" height="26" as="geometry" />
        </mxCell>
        <mxCell id="SfpVanDIu_7wecpVr07M-5" value="&lt;span style=&quot;font-weight: 400;&quot;&gt;AdaptadorDeBaseDeDatos (Adapter)&lt;/span&gt;" style="swimlane;fontStyle=1;align=center;verticalAlign=top;childLayout=stackLayout;horizontal=1;startSize=26;horizontalStack=0;resizeParent=1;resizeParentMax=0;resizeLast=0;collapsible=1;marginBottom=0;whiteSpace=wrap;html=1;" parent="WIyWlLk6GJQsqaUBKTNV-1" vertex="1">
          <mxGeometry x="-1488" y="240" width="320" height="116" as="geometry" />
        </mxCell>
        <mxCell id="SfpVanDIu_7wecpVr07M-6" value="- baseDeDatosAntigua: BaseDeDatosAntigua" style="text;strokeColor=none;fillColor=none;align=left;verticalAlign=top;spacingLeft=4;spacingRight=4;overflow=hidden;rotatable=0;points=[[0,0.5],[1,0.5]];portConstraint=eastwest;whiteSpace=wrap;html=1;" parent="SfpVanDIu_7wecpVr07M-5" vertex="1">
          <mxGeometry y="26" width="320" height="26" as="geometry" />
        </mxCell>
        <mxCell id="SfpVanDIu_7wecpVr07M-7" value="" style="line;strokeWidth=1;fillColor=none;align=left;verticalAlign=middle;spacingTop=-1;spacingLeft=3;spacingRight=3;rotatable=0;labelPosition=right;points=[];portConstraint=eastwest;strokeColor=inherit;" parent="SfpVanDIu_7wecpVr07M-5" vertex="1">
          <mxGeometry y="52" width="320" height="8" as="geometry" />
        </mxCell>
        <mxCell id="SfpVanDIu_7wecpVr07M-8" value="+ AdaptadorDeBaseDeDatos(baseDeDatosAntigua)" style="text;strokeColor=none;fillColor=none;align=left;verticalAlign=top;spacingLeft=4;spacingRight=4;overflow=hidden;rotatable=0;points=[[0,0.5],[1,0.5]];portConstraint=eastwest;whiteSpace=wrap;html=1;" parent="SfpVanDIu_7wecpVr07M-5" vertex="1">
          <mxGeometry y="60" width="320" height="26" as="geometry" />
        </mxCell>
        <mxCell id="SfpVanDIu_7wecpVr07M-9" value="&amp;nbsp;+ obtenerProyectoAdaptado(id: String): Proyecto" style="text;html=1;align=left;verticalAlign=middle;resizable=0;points=[];autosize=1;strokeColor=none;fillColor=none;" parent="SfpVanDIu_7wecpVr07M-5" vertex="1">
          <mxGeometry y="86" width="320" height="30" as="geometry" />
        </mxCell>
        <mxCell id="SfpVanDIu_7wecpVr07M-10" value="AsignacionPorCarga" style="swimlane;fontStyle=0;childLayout=stackLayout;horizontal=1;startSize=26;fillColor=none;horizontalStack=0;resizeParent=1;resizeParentMax=0;resizeLast=0;collapsible=1;marginBottom=0;whiteSpace=wrap;html=1;" parent="WIyWlLk6GJQsqaUBKTNV-1" vertex="1">
          <mxGeometry x="-530" y="260" width="380" height="52" as="geometry" />
        </mxCell>
        <mxCell id="SfpVanDIu_7wecpVr07M-11" value="+ asignarTarea(tarea: Tarea, empleados: List &amp;lt;Empleado&amp;gt;): void" style="text;strokeColor=none;fillColor=none;align=left;verticalAlign=top;spacingLeft=4;spacingRight=4;overflow=hidden;rotatable=0;points=[[0,0.5],[1,0.5]];portConstraint=eastwest;whiteSpace=wrap;html=1;" parent="SfpVanDIu_7wecpVr07M-10" vertex="1">
          <mxGeometry y="26" width="380" height="26" as="geometry" />
        </mxCell>
        <mxCell id="SfpVanDIu_7wecpVr07M-12" value="BaseDeDatosAntigua" style="swimlane;fontStyle=0;childLayout=stackLayout;horizontal=1;startSize=26;fillColor=none;horizontalStack=0;resizeParent=1;resizeParentMax=0;resizeLast=0;collapsible=1;marginBottom=0;whiteSpace=wrap;html=1;" parent="WIyWlLk6GJQsqaUBKTNV-1" vertex="1">
          <mxGeometry x="-1920" y="110" width="380" height="52" as="geometry" />
        </mxCell>
        <mxCell id="SfpVanDIu_7wecpVr07M-13" value="&amp;nbsp;+ obtenerProyectoAntiguo (id: String): DatosProyectoAntiguo" style="text;strokeColor=none;fillColor=none;align=left;verticalAlign=top;spacingLeft=4;spacingRight=4;overflow=hidden;rotatable=0;points=[[0,0.5],[1,0.5]];portConstraint=eastwest;whiteSpace=wrap;html=1;" parent="SfpVanDIu_7wecpVr07M-12" vertex="1">
          <mxGeometry y="26" width="380" height="26" as="geometry" />
        </mxCell>
        <mxCell id="SfpVanDIu_7wecpVr07M-14" value="&lt;span style=&quot;font-weight: 400;&quot;&gt;Cliente&lt;/span&gt;" style="swimlane;fontStyle=1;align=center;verticalAlign=top;childLayout=stackLayout;horizontal=1;startSize=26;horizontalStack=0;resizeParent=1;resizeParentMax=0;resizeLast=0;collapsible=1;marginBottom=0;whiteSpace=wrap;html=1;" parent="WIyWlLk6GJQsqaUBKTNV-1" vertex="1">
          <mxGeometry x="-670" y="1190" width="320" height="236" as="geometry" />
        </mxCell>
        <mxCell id="SfpVanDIu_7wecpVr07M-15" value="- nombre: String" style="text;strokeColor=none;fillColor=none;align=left;verticalAlign=top;spacingLeft=4;spacingRight=4;overflow=hidden;rotatable=0;points=[[0,0.5],[1,0.5]];portConstraint=eastwest;whiteSpace=wrap;html=1;" parent="SfpVanDIu_7wecpVr07M-14" vertex="1">
          <mxGeometry y="26" width="320" height="26" as="geometry" />
        </mxCell>
        <mxCell id="SfpVanDIu_7wecpVr07M-19" value="&amp;nbsp;- contacto: String" style="text;html=1;align=left;verticalAlign=middle;resizable=0;points=[];autosize=1;strokeColor=none;fillColor=none;" parent="SfpVanDIu_7wecpVr07M-14" vertex="1">
          <mxGeometry y="52" width="320" height="30" as="geometry" />
        </mxCell>
        <mxCell id="SfpVanDIu_7wecpVr07M-16" value="" style="line;strokeWidth=1;fillColor=none;align=left;verticalAlign=middle;spacingTop=-1;spacingLeft=3;spacingRight=3;rotatable=0;labelPosition=right;points=[];portConstraint=eastwest;strokeColor=inherit;" parent="SfpVanDIu_7wecpVr07M-14" vertex="1">
          <mxGeometry y="82" width="320" height="8" as="geometry" />
        </mxCell>
        <mxCell id="SfpVanDIu_7wecpVr07M-17" value="+ Cliente (nombre: String, contacto : String)" style="text;strokeColor=none;fillColor=none;align=left;verticalAlign=top;spacingLeft=4;spacingRight=4;overflow=hidden;rotatable=0;points=[[0,0.5],[1,0.5]];portConstraint=eastwest;whiteSpace=wrap;html=1;" parent="SfpVanDIu_7wecpVr07M-14" vertex="1">
          <mxGeometry y="90" width="320" height="26" as="geometry" />
        </mxCell>
        <mxCell id="SfpVanDIu_7wecpVr07M-18" value="&amp;nbsp;+ getNombre ( ): String" style="text;html=1;align=left;verticalAlign=middle;resizable=0;points=[];autosize=1;strokeColor=none;fillColor=none;" parent="SfpVanDIu_7wecpVr07M-14" vertex="1">
          <mxGeometry y="116" width="320" height="30" as="geometry" />
        </mxCell>
        <mxCell id="SfpVanDIu_7wecpVr07M-20" value="&amp;nbsp;+ setNombre (nombre: String): void" style="text;html=1;align=left;verticalAlign=middle;resizable=0;points=[];autosize=1;strokeColor=none;fillColor=none;" parent="SfpVanDIu_7wecpVr07M-14" vertex="1">
          <mxGeometry y="146" width="320" height="30" as="geometry" />
        </mxCell>
        <mxCell id="SfpVanDIu_7wecpVr07M-21" value="&amp;nbsp;+ getContacto ( ): String" style="text;html=1;align=left;verticalAlign=middle;resizable=0;points=[];autosize=1;strokeColor=none;fillColor=none;" parent="SfpVanDIu_7wecpVr07M-14" vertex="1">
          <mxGeometry y="176" width="320" height="30" as="geometry" />
        </mxCell>
        <mxCell id="SfpVanDIu_7wecpVr07M-22" value="&amp;nbsp;+ setContacto (contacto: String): void" style="text;html=1;align=left;verticalAlign=middle;resizable=0;points=[];autosize=1;strokeColor=none;fillColor=none;" parent="SfpVanDIu_7wecpVr07M-14" vertex="1">
          <mxGeometry y="206" width="320" height="30" as="geometry" />
        </mxCell>
        <mxCell id="SfpVanDIu_7wecpVr07M-23" value="DatosProyectoAntiguo" style="swimlane;fontStyle=1;align=center;verticalAlign=top;childLayout=stackLayout;horizontal=1;startSize=26;horizontalStack=0;resizeParent=1;resizeParentMax=0;resizeLast=0;collapsible=1;marginBottom=0;whiteSpace=wrap;html=1;" parent="WIyWlLk6GJQsqaUBKTNV-1" vertex="1">
          <mxGeometry x="-2150" y="250" width="580" height="236" as="geometry" />
        </mxCell>
        <mxCell id="SfpVanDIu_7wecpVr07M-24" value="- nombreViejo: String" style="text;strokeColor=none;fillColor=none;align=left;verticalAlign=top;spacingLeft=4;spacingRight=4;overflow=hidden;rotatable=0;points=[[0,0.5],[1,0.5]];portConstraint=eastwest;whiteSpace=wrap;html=1;" parent="SfpVanDIu_7wecpVr07M-23" vertex="1">
          <mxGeometry y="26" width="580" height="26" as="geometry" />
        </mxCell>
        <mxCell id="SfpVanDIu_7wecpVr07M-27" value="&amp;nbsp;- descripcionVieja: String" style="text;html=1;align=left;verticalAlign=middle;resizable=0;points=[];autosize=1;strokeColor=none;fillColor=none;" parent="SfpVanDIu_7wecpVr07M-23" vertex="1">
          <mxGeometry y="52" width="580" height="30" as="geometry" />
        </mxCell>
        <mxCell id="SfpVanDIu_7wecpVr07M-28" value="&amp;nbsp;- clienteViejo: String" style="text;html=1;align=left;verticalAlign=middle;resizable=0;points=[];autosize=1;strokeColor=none;fillColor=none;" parent="SfpVanDIu_7wecpVr07M-23" vertex="1">
          <mxGeometry y="82" width="580" height="30" as="geometry" />
        </mxCell>
        <mxCell id="SfpVanDIu_7wecpVr07M-25" value="" style="line;strokeWidth=1;fillColor=none;align=left;verticalAlign=middle;spacingTop=-1;spacingLeft=3;spacingRight=3;rotatable=0;labelPosition=right;points=[];portConstraint=eastwest;strokeColor=inherit;" parent="SfpVanDIu_7wecpVr07M-23" vertex="1">
          <mxGeometry y="112" width="580" height="8" as="geometry" />
        </mxCell>
        <mxCell id="SfpVanDIu_7wecpVr07M-26" value="+ DatosProyectoAntiguo (nombreViejo: String, descripcionVieja: String, clienteViejo: String)" style="text;strokeColor=none;fillColor=none;align=left;verticalAlign=top;spacingLeft=4;spacingRight=4;overflow=hidden;rotatable=0;points=[[0,0.5],[1,0.5]];portConstraint=eastwest;whiteSpace=wrap;html=1;" parent="SfpVanDIu_7wecpVr07M-23" vertex="1">
          <mxGeometry y="120" width="580" height="26" as="geometry" />
        </mxCell>
        <mxCell id="SfpVanDIu_7wecpVr07M-29" value="&amp;nbsp;+ getNombreViejo ( ): String" style="text;html=1;align=left;verticalAlign=middle;resizable=0;points=[];autosize=1;strokeColor=none;fillColor=none;" parent="SfpVanDIu_7wecpVr07M-23" vertex="1">
          <mxGeometry y="146" width="580" height="30" as="geometry" />
        </mxCell>
        <mxCell id="SfpVanDIu_7wecpVr07M-30" value="&amp;nbsp;+ getDescripcionVieja ( ): String" style="text;html=1;align=left;verticalAlign=middle;resizable=0;points=[];autosize=1;strokeColor=none;fillColor=none;" parent="SfpVanDIu_7wecpVr07M-23" vertex="1">
          <mxGeometry y="176" width="580" height="30" as="geometry" />
        </mxCell>
        <mxCell id="SfpVanDIu_7wecpVr07M-31" value="&amp;nbsp;+ getClienteViejo ( ): String" style="text;html=1;align=left;verticalAlign=middle;resizable=0;points=[];autosize=1;strokeColor=none;fillColor=none;" parent="SfpVanDIu_7wecpVr07M-23" vertex="1">
          <mxGeometry y="206" width="580" height="30" as="geometry" />
        </mxCell>
        <mxCell id="aGA3AkoK5AXnRBro-QrJ-0" value="Empleado" style="swimlane;fontStyle=1;align=center;verticalAlign=top;childLayout=stackLayout;horizontal=1;startSize=26;horizontalStack=0;resizeParent=1;resizeParentMax=0;resizeLast=0;collapsible=1;marginBottom=0;whiteSpace=wrap;html=1;" vertex="1" parent="WIyWlLk6GJQsqaUBKTNV-1">
          <mxGeometry x="-2160" y="810" width="580" height="302" as="geometry" />
        </mxCell>
        <mxCell id="aGA3AkoK5AXnRBro-QrJ-1" value="- nombre: String" style="text;strokeColor=none;fillColor=none;align=left;verticalAlign=top;spacingLeft=4;spacingRight=4;overflow=hidden;rotatable=0;points=[[0,0.5],[1,0.5]];portConstraint=eastwest;whiteSpace=wrap;html=1;" vertex="1" parent="aGA3AkoK5AXnRBro-QrJ-0">
          <mxGeometry y="26" width="580" height="26" as="geometry" />
        </mxCell>
        <mxCell id="aGA3AkoK5AXnRBro-QrJ-4" value="&amp;nbsp;- rol: String" style="text;html=1;align=left;verticalAlign=middle;resizable=0;points=[];autosize=1;strokeColor=none;fillColor=none;" vertex="1" parent="aGA3AkoK5AXnRBro-QrJ-0">
          <mxGeometry y="52" width="580" height="30" as="geometry" />
        </mxCell>
        <mxCell id="aGA3AkoK5AXnRBro-QrJ-5" value="&amp;nbsp;- tareaAsignadas: List&amp;lt;Tarea&amp;gt;" style="text;html=1;align=left;verticalAlign=middle;resizable=0;points=[];autosize=1;strokeColor=none;fillColor=none;" vertex="1" parent="aGA3AkoK5AXnRBro-QrJ-0">
          <mxGeometry y="82" width="580" height="30" as="geometry" />
        </mxCell>
        <mxCell id="aGA3AkoK5AXnRBro-QrJ-2" value="" style="line;strokeWidth=1;fillColor=none;align=left;verticalAlign=middle;spacingTop=-1;spacingLeft=3;spacingRight=3;rotatable=0;labelPosition=right;points=[];portConstraint=eastwest;strokeColor=inherit;" vertex="1" parent="aGA3AkoK5AXnRBro-QrJ-0">
          <mxGeometry y="112" width="580" height="8" as="geometry" />
        </mxCell>
        <mxCell id="aGA3AkoK5AXnRBro-QrJ-3" value="+ Empleado(nombre : String , rol : String)" style="text;strokeColor=none;fillColor=none;align=left;verticalAlign=top;spacingLeft=4;spacingRight=4;overflow=hidden;rotatable=0;points=[[0,0.5],[1,0.5]];portConstraint=eastwest;whiteSpace=wrap;html=1;" vertex="1" parent="aGA3AkoK5AXnRBro-QrJ-0">
          <mxGeometry y="120" width="580" height="26" as="geometry" />
        </mxCell>
        <mxCell id="aGA3AkoK5AXnRBro-QrJ-7" value="+ getNombre ( ): String" style="text;strokeColor=none;fillColor=none;align=left;verticalAlign=top;spacingLeft=4;spacingRight=4;overflow=hidden;rotatable=0;points=[[0,0.5],[1,0.5]];portConstraint=eastwest;whiteSpace=wrap;html=1;" vertex="1" parent="aGA3AkoK5AXnRBro-QrJ-0">
          <mxGeometry y="146" width="580" height="26" as="geometry" />
        </mxCell>
        <mxCell id="aGA3AkoK5AXnRBro-QrJ-8" value="+ getRol ( ): String" style="text;strokeColor=none;fillColor=none;align=left;verticalAlign=top;spacingLeft=4;spacingRight=4;overflow=hidden;rotatable=0;points=[[0,0.5],[1,0.5]];portConstraint=eastwest;whiteSpace=wrap;html=1;" vertex="1" parent="aGA3AkoK5AXnRBro-QrJ-0">
          <mxGeometry y="172" width="580" height="26" as="geometry" />
        </mxCell>
        <mxCell id="aGA3AkoK5AXnRBro-QrJ-9" value="+ getTareasAsignadas ( ): List&amp;lt;Tarea&amp;gt;" style="text;strokeColor=none;fillColor=none;align=left;verticalAlign=top;spacingLeft=4;spacingRight=4;overflow=hidden;rotatable=0;points=[[0,0.5],[1,0.5]];portConstraint=eastwest;whiteSpace=wrap;html=1;" vertex="1" parent="aGA3AkoK5AXnRBro-QrJ-0">
          <mxGeometry y="198" width="580" height="26" as="geometry" />
        </mxCell>
        <mxCell id="aGA3AkoK5AXnRBro-QrJ-6" value="+ asignarTarea(tarea: Tarea)" style="text;strokeColor=none;fillColor=none;align=left;verticalAlign=top;spacingLeft=4;spacingRight=4;overflow=hidden;rotatable=0;points=[[0,0.5],[1,0.5]];portConstraint=eastwest;whiteSpace=wrap;html=1;" vertex="1" parent="aGA3AkoK5AXnRBro-QrJ-0">
          <mxGeometry y="224" width="580" height="26" as="geometry" />
        </mxCell>
        <mxCell id="aGA3AkoK5AXnRBro-QrJ-10" value="+ getCantidadTareas( ): int" style="text;strokeColor=none;fillColor=none;align=left;verticalAlign=top;spacingLeft=4;spacingRight=4;overflow=hidden;rotatable=0;points=[[0,0.5],[1,0.5]];portConstraint=eastwest;whiteSpace=wrap;html=1;" vertex="1" parent="aGA3AkoK5AXnRBro-QrJ-0">
          <mxGeometry y="250" width="580" height="26" as="geometry" />
        </mxCell>
        <mxCell id="aGA3AkoK5AXnRBro-QrJ-11" value="# actualizar(tarea: Tarea)" style="text;strokeColor=none;fillColor=none;align=left;verticalAlign=top;spacingLeft=4;spacingRight=4;overflow=hidden;rotatable=0;points=[[0,0.5],[1,0.5]];portConstraint=eastwest;whiteSpace=wrap;html=1;" vertex="1" parent="aGA3AkoK5AXnRBro-QrJ-0">
          <mxGeometry y="276" width="580" height="26" as="geometry" />
        </mxCell>
        <mxCell id="aGA3AkoK5AXnRBro-QrJ-19" value="" style="endArrow=open;endFill=1;endSize=12;html=1;rounded=0;exitX=0.5;exitY=0;exitDx=0;exitDy=0;entryX=0.413;entryY=1.055;entryDx=0;entryDy=0;entryPerimeter=0;" edge="1" parent="WIyWlLk6GJQsqaUBKTNV-1" source="aGA3AkoK5AXnRBro-QrJ-73" target="aGA3AkoK5AXnRBro-QrJ-11">
          <mxGeometry width="160" relative="1" as="geometry">
            <mxPoint x="-2060" y="1280" as="sourcePoint" />
            <mxPoint x="-1920" y="1116" as="targetPoint" />
            <Array as="points">
              <mxPoint x="-2060" y="1200" />
              <mxPoint x="-1920" y="1200" />
            </Array>
          </mxGeometry>
        </mxCell>
        <mxCell id="aGA3AkoK5AXnRBro-QrJ-20" value="&amp;lt;&amp;lt;interface&amp;gt;&amp;gt; EstrategiaAsignacionTareas (Strategy)" style="swimlane;fontStyle=1;align=center;verticalAlign=top;childLayout=stackLayout;horizontal=1;startSize=26;horizontalStack=0;resizeParent=1;resizeParentMax=0;resizeLast=0;collapsible=1;marginBottom=0;whiteSpace=wrap;html=1;" vertex="1" parent="WIyWlLk6GJQsqaUBKTNV-1">
          <mxGeometry x="-800" y="420" width="380" height="70" as="geometry" />
        </mxCell>
        <mxCell id="aGA3AkoK5AXnRBro-QrJ-22" value="" style="line;strokeWidth=1;fillColor=none;align=left;verticalAlign=middle;spacingTop=-1;spacingLeft=3;spacingRight=3;rotatable=0;labelPosition=right;points=[];portConstraint=eastwest;strokeColor=inherit;" vertex="1" parent="aGA3AkoK5AXnRBro-QrJ-20">
          <mxGeometry y="26" width="380" height="8" as="geometry" />
        </mxCell>
        <mxCell id="aGA3AkoK5AXnRBro-QrJ-23" value="+ asignarTarea(tarea: Tarea, empleados: List&amp;lt;Empleado&amp;gt;): void" style="text;strokeColor=none;fillColor=none;align=left;verticalAlign=top;spacingLeft=4;spacingRight=4;overflow=hidden;rotatable=0;points=[[0,0.5],[1,0.5]];portConstraint=eastwest;whiteSpace=wrap;html=1;" vertex="1" parent="aGA3AkoK5AXnRBro-QrJ-20">
          <mxGeometry y="34" width="380" height="36" as="geometry" />
        </mxCell>
        <mxCell id="aGA3AkoK5AXnRBro-QrJ-25" value="FabricaDeEmpleados (Factory)" style="swimlane;fontStyle=1;align=center;verticalAlign=top;childLayout=stackLayout;horizontal=1;startSize=26;horizontalStack=0;resizeParent=1;resizeParentMax=0;resizeLast=0;collapsible=1;marginBottom=0;whiteSpace=wrap;html=1;" vertex="1" parent="WIyWlLk6GJQsqaUBKTNV-1">
          <mxGeometry x="-2170" y="1496" width="320" height="60" as="geometry" />
        </mxCell>
        <mxCell id="aGA3AkoK5AXnRBro-QrJ-27" value="" style="line;strokeWidth=1;fillColor=none;align=left;verticalAlign=middle;spacingTop=-1;spacingLeft=3;spacingRight=3;rotatable=0;labelPosition=right;points=[];portConstraint=eastwest;strokeColor=inherit;" vertex="1" parent="aGA3AkoK5AXnRBro-QrJ-25">
          <mxGeometry y="26" width="320" height="8" as="geometry" />
        </mxCell>
        <mxCell id="aGA3AkoK5AXnRBro-QrJ-28" value="+ crearEmpleado(tipo: String, nombre: String): Empleado" style="text;strokeColor=none;fillColor=none;align=left;verticalAlign=top;spacingLeft=4;spacingRight=4;overflow=hidden;rotatable=0;points=[[0,0.5],[1,0.5]];portConstraint=eastwest;whiteSpace=wrap;html=1;" vertex="1" parent="aGA3AkoK5AXnRBro-QrJ-25">
          <mxGeometry y="34" width="320" height="26" as="geometry" />
        </mxCell>
        <mxCell id="aGA3AkoK5AXnRBro-QrJ-29" value="gestorDeProyectos (Singleton)" style="swimlane;fontStyle=1;align=center;verticalAlign=top;childLayout=stackLayout;horizontal=1;startSize=26;horizontalStack=0;resizeParent=1;resizeParentMax=0;resizeLast=0;collapsible=1;marginBottom=0;whiteSpace=wrap;html=1;" vertex="1" parent="WIyWlLk6GJQsqaUBKTNV-1">
          <mxGeometry x="-1530" y="1290" width="289" height="266" as="geometry" />
        </mxCell>
        <mxCell id="aGA3AkoK5AXnRBro-QrJ-30" value="&amp;nbsp;- instancia: GestorDeProyectos" style="text;strokeColor=none;fillColor=none;align=left;verticalAlign=top;spacingLeft=4;spacingRight=4;overflow=hidden;rotatable=0;points=[[0,0.5],[1,0.5]];portConstraint=eastwest;whiteSpace=wrap;html=1;" vertex="1" parent="aGA3AkoK5AXnRBro-QrJ-29">
          <mxGeometry y="26" width="289" height="26" as="geometry" />
        </mxCell>
        <mxCell id="aGA3AkoK5AXnRBro-QrJ-33" value="&amp;nbsp;- proyectos: ArrayList&amp;lt;Proyectos&amp;gt;" style="text;html=1;align=left;verticalAlign=middle;resizable=0;points=[];autosize=1;strokeColor=none;fillColor=none;" vertex="1" parent="aGA3AkoK5AXnRBro-QrJ-29">
          <mxGeometry y="52" width="289" height="30" as="geometry" />
        </mxCell>
        <mxCell id="aGA3AkoK5AXnRBro-QrJ-34" value="&amp;nbsp;- empleados: ArrayList&amp;lt;Empleado&amp;gt;" style="text;html=1;align=left;verticalAlign=middle;resizable=0;points=[];autosize=1;strokeColor=none;fillColor=none;" vertex="1" parent="aGA3AkoK5AXnRBro-QrJ-29">
          <mxGeometry y="82" width="289" height="30" as="geometry" />
        </mxCell>
        <mxCell id="aGA3AkoK5AXnRBro-QrJ-31" value="" style="line;strokeWidth=1;fillColor=none;align=left;verticalAlign=middle;spacingTop=-1;spacingLeft=3;spacingRight=3;rotatable=0;labelPosition=right;points=[];portConstraint=eastwest;strokeColor=inherit;" vertex="1" parent="aGA3AkoK5AXnRBro-QrJ-29">
          <mxGeometry y="112" width="289" height="8" as="geometry" />
        </mxCell>
        <mxCell id="aGA3AkoK5AXnRBro-QrJ-32" value="+ getInstancia( ): GestorDeProyectos" style="text;strokeColor=none;fillColor=none;align=left;verticalAlign=top;spacingLeft=4;spacingRight=4;overflow=hidden;rotatable=0;points=[[0,0.5],[1,0.5]];portConstraint=eastwest;whiteSpace=wrap;html=1;" vertex="1" parent="aGA3AkoK5AXnRBro-QrJ-29">
          <mxGeometry y="120" width="289" height="26" as="geometry" />
        </mxCell>
        <mxCell id="aGA3AkoK5AXnRBro-QrJ-35" value="&amp;nbsp;+ agregarProyecto(proyecto : Proyecto): void" style="text;html=1;align=left;verticalAlign=middle;resizable=0;points=[];autosize=1;strokeColor=none;fillColor=none;" vertex="1" parent="aGA3AkoK5AXnRBro-QrJ-29">
          <mxGeometry y="146" width="289" height="30" as="geometry" />
        </mxCell>
        <mxCell id="aGA3AkoK5AXnRBro-QrJ-36" value="&amp;nbsp;+ agregarEmpleado(empleado : Empleado): void" style="text;html=1;align=left;verticalAlign=middle;resizable=0;points=[];autosize=1;strokeColor=none;fillColor=none;" vertex="1" parent="aGA3AkoK5AXnRBro-QrJ-29">
          <mxGeometry y="176" width="289" height="30" as="geometry" />
        </mxCell>
        <mxCell id="aGA3AkoK5AXnRBro-QrJ-37" value="&amp;nbsp;+ getProyectos( ): ArrayList &amp;lt;Proyecto&amp;gt;" style="text;html=1;align=left;verticalAlign=middle;resizable=0;points=[];autosize=1;strokeColor=none;fillColor=none;" vertex="1" parent="aGA3AkoK5AXnRBro-QrJ-29">
          <mxGeometry y="206" width="289" height="30" as="geometry" />
        </mxCell>
        <mxCell id="aGA3AkoK5AXnRBro-QrJ-38" value="&amp;nbsp;+ getEmpleados( ): ArrayList&amp;lt;Empleado&amp;gt;" style="text;html=1;align=left;verticalAlign=middle;resizable=0;points=[];autosize=1;strokeColor=none;fillColor=none;" vertex="1" parent="aGA3AkoK5AXnRBro-QrJ-29">
          <mxGeometry y="236" width="289" height="30" as="geometry" />
        </mxCell>
        <mxCell id="aGA3AkoK5AXnRBro-QrJ-39" value="Menu" style="swimlane;fontStyle=1;align=center;verticalAlign=top;childLayout=stackLayout;horizontal=1;startSize=26;horizontalStack=0;resizeParent=1;resizeParentMax=0;resizeLast=0;collapsible=1;marginBottom=0;whiteSpace=wrap;html=1;" vertex="1" parent="WIyWlLk6GJQsqaUBKTNV-1">
          <mxGeometry x="-1870" y="620" width="290" height="60" as="geometry" />
        </mxCell>
        <mxCell id="aGA3AkoK5AXnRBro-QrJ-41" value="" style="line;strokeWidth=1;fillColor=none;align=left;verticalAlign=middle;spacingTop=-1;spacingLeft=3;spacingRight=3;rotatable=0;labelPosition=right;points=[];portConstraint=eastwest;strokeColor=inherit;" vertex="1" parent="aGA3AkoK5AXnRBro-QrJ-39">
          <mxGeometry y="26" width="290" height="8" as="geometry" />
        </mxCell>
        <mxCell id="aGA3AkoK5AXnRBro-QrJ-42" value="+ main (args: String [ ]): void" style="text;strokeColor=none;fillColor=none;align=left;verticalAlign=top;spacingLeft=4;spacingRight=4;overflow=hidden;rotatable=0;points=[[0,0.5],[1,0.5]];portConstraint=eastwest;whiteSpace=wrap;html=1;" vertex="1" parent="aGA3AkoK5AXnRBro-QrJ-39">
          <mxGeometry y="34" width="290" height="26" as="geometry" />
        </mxCell>
        <mxCell id="aGA3AkoK5AXnRBro-QrJ-43" value="Proyecto" style="swimlane;fontStyle=1;align=center;verticalAlign=top;childLayout=stackLayout;horizontal=1;startSize=26;horizontalStack=0;resizeParent=1;resizeParentMax=0;resizeLast=0;collapsible=1;marginBottom=0;whiteSpace=wrap;html=1;" vertex="1" parent="WIyWlLk6GJQsqaUBKTNV-1">
          <mxGeometry x="-1390" y="666" width="660" height="446" as="geometry" />
        </mxCell>
        <mxCell id="aGA3AkoK5AXnRBro-QrJ-44" value="- nombre : String" style="text;strokeColor=none;fillColor=none;align=left;verticalAlign=top;spacingLeft=4;spacingRight=4;overflow=hidden;rotatable=0;points=[[0,0.5],[1,0.5]];portConstraint=eastwest;whiteSpace=wrap;html=1;" vertex="1" parent="aGA3AkoK5AXnRBro-QrJ-43">
          <mxGeometry y="26" width="660" height="26" as="geometry" />
        </mxCell>
        <mxCell id="aGA3AkoK5AXnRBro-QrJ-47" value="&amp;nbsp;- descripcion : String" style="text;html=1;align=left;verticalAlign=middle;resizable=0;points=[];autosize=1;strokeColor=none;fillColor=none;" vertex="1" parent="aGA3AkoK5AXnRBro-QrJ-43">
          <mxGeometry y="52" width="660" height="30" as="geometry" />
        </mxCell>
        <mxCell id="aGA3AkoK5AXnRBro-QrJ-48" value="&amp;nbsp;- gerente : Empleado" style="text;html=1;align=left;verticalAlign=middle;resizable=0;points=[];autosize=1;strokeColor=none;fillColor=none;" vertex="1" parent="aGA3AkoK5AXnRBro-QrJ-43">
          <mxGeometry y="82" width="660" height="30" as="geometry" />
        </mxCell>
        <mxCell id="aGA3AkoK5AXnRBro-QrJ-49" value="&amp;nbsp;- cliente : Cliente" style="text;html=1;align=left;verticalAlign=middle;resizable=0;points=[];autosize=1;strokeColor=none;fillColor=none;" vertex="1" parent="aGA3AkoK5AXnRBro-QrJ-43">
          <mxGeometry y="112" width="660" height="30" as="geometry" />
        </mxCell>
        <mxCell id="aGA3AkoK5AXnRBro-QrJ-50" value="&amp;nbsp;- empleados : ArrayList&amp;lt;Empleado&amp;gt;" style="text;html=1;align=left;verticalAlign=middle;resizable=0;points=[];autosize=1;strokeColor=none;fillColor=none;" vertex="1" parent="aGA3AkoK5AXnRBro-QrJ-43">
          <mxGeometry y="142" width="660" height="30" as="geometry" />
        </mxCell>
        <mxCell id="aGA3AkoK5AXnRBro-QrJ-51" value="&amp;nbsp;- tareas : ArrayList&amp;lt;Tarea&amp;gt;" style="text;html=1;align=left;verticalAlign=middle;resizable=0;points=[];autosize=1;strokeColor=none;fillColor=none;" vertex="1" parent="aGA3AkoK5AXnRBro-QrJ-43">
          <mxGeometry y="172" width="660" height="30" as="geometry" />
        </mxCell>
        <mxCell id="aGA3AkoK5AXnRBro-QrJ-52" value="&amp;nbsp;- estrategia : EstrategiaAsignacionTareas" style="text;html=1;align=left;verticalAlign=middle;resizable=0;points=[];autosize=1;strokeColor=none;fillColor=none;" vertex="1" parent="aGA3AkoK5AXnRBro-QrJ-43">
          <mxGeometry y="202" width="660" height="30" as="geometry" />
        </mxCell>
        <mxCell id="aGA3AkoK5AXnRBro-QrJ-45" value="" style="line;strokeWidth=1;fillColor=none;align=left;verticalAlign=middle;spacingTop=-1;spacingLeft=3;spacingRight=3;rotatable=0;labelPosition=right;points=[];portConstraint=eastwest;strokeColor=inherit;" vertex="1" parent="aGA3AkoK5AXnRBro-QrJ-43">
          <mxGeometry y="232" width="660" height="8" as="geometry" />
        </mxCell>
        <mxCell id="aGA3AkoK5AXnRBro-QrJ-53" value="&amp;nbsp;+ Proyecto(nombre: String, descripcion: String, cliente: Cliente, gente: Gerente, estrategia: EstategiaAsignacionTareas)" style="text;html=1;align=left;verticalAlign=middle;resizable=0;points=[];autosize=1;strokeColor=none;fillColor=none;" vertex="1" parent="aGA3AkoK5AXnRBro-QrJ-43">
          <mxGeometry y="240" width="660" height="30" as="geometry" />
        </mxCell>
        <mxCell id="aGA3AkoK5AXnRBro-QrJ-54" value="&amp;nbsp;+ asignarEmpleado (empleado: Empleado) : void&amp;nbsp;" style="text;html=1;align=left;verticalAlign=middle;resizable=0;points=[];autosize=1;strokeColor=none;fillColor=none;" vertex="1" parent="aGA3AkoK5AXnRBro-QrJ-43">
          <mxGeometry y="270" width="660" height="30" as="geometry" />
        </mxCell>
        <mxCell id="aGA3AkoK5AXnRBro-QrJ-46" value="+ agregarTarea(tarea: Tarea): void" style="text;strokeColor=none;fillColor=none;align=left;verticalAlign=top;spacingLeft=4;spacingRight=4;overflow=hidden;rotatable=0;points=[[0,0.5],[1,0.5]];portConstraint=eastwest;whiteSpace=wrap;html=1;" vertex="1" parent="aGA3AkoK5AXnRBro-QrJ-43">
          <mxGeometry y="300" width="660" height="26" as="geometry" />
        </mxCell>
        <mxCell id="aGA3AkoK5AXnRBro-QrJ-55" value="&amp;nbsp;+ asignarTarea(tarea: Tarea): void" style="text;html=1;align=left;verticalAlign=middle;resizable=0;points=[];autosize=1;strokeColor=none;fillColor=none;" vertex="1" parent="aGA3AkoK5AXnRBro-QrJ-43">
          <mxGeometry y="326" width="660" height="30" as="geometry" />
        </mxCell>
        <mxCell id="aGA3AkoK5AXnRBro-QrJ-57" value="&amp;nbsp;+ mostrarResumen( ): String" style="text;html=1;align=left;verticalAlign=middle;resizable=0;points=[];autosize=1;strokeColor=none;fillColor=none;" vertex="1" parent="aGA3AkoK5AXnRBro-QrJ-43">
          <mxGeometry y="356" width="660" height="30" as="geometry" />
        </mxCell>
        <mxCell id="aGA3AkoK5AXnRBro-QrJ-56" value="&amp;nbsp;+ getNombre ( ): String" style="text;html=1;align=left;verticalAlign=middle;resizable=0;points=[];autosize=1;strokeColor=none;fillColor=none;" vertex="1" parent="aGA3AkoK5AXnRBro-QrJ-43">
          <mxGeometry y="386" width="660" height="30" as="geometry" />
        </mxCell>
        <mxCell id="aGA3AkoK5AXnRBro-QrJ-58" value="&amp;nbsp;+ getTarea ( ) : ArrayList&amp;lt;Tarea&amp;gt;" style="text;html=1;align=left;verticalAlign=middle;resizable=0;points=[];autosize=1;strokeColor=none;fillColor=none;" vertex="1" parent="aGA3AkoK5AXnRBro-QrJ-43">
          <mxGeometry y="416" width="660" height="30" as="geometry" />
        </mxCell>
        <mxCell id="aGA3AkoK5AXnRBro-QrJ-60" value="Tarea (observer)" style="swimlane;fontStyle=1;align=center;verticalAlign=top;childLayout=stackLayout;horizontal=1;startSize=26;horizontalStack=0;resizeParent=1;resizeParentMax=0;resizeLast=0;collapsible=1;marginBottom=0;whiteSpace=wrap;html=1;" vertex="1" parent="WIyWlLk6GJQsqaUBKTNV-1">
          <mxGeometry x="-680" y="680" width="660" height="326" as="geometry" />
        </mxCell>
        <mxCell id="aGA3AkoK5AXnRBro-QrJ-61" value="- nombre: String" style="text;strokeColor=none;fillColor=none;align=left;verticalAlign=top;spacingLeft=4;spacingRight=4;overflow=hidden;rotatable=0;points=[[0,0.5],[1,0.5]];portConstraint=eastwest;whiteSpace=wrap;html=1;" vertex="1" parent="aGA3AkoK5AXnRBro-QrJ-60">
          <mxGeometry y="26" width="660" height="26" as="geometry" />
        </mxCell>
        <mxCell id="aGA3AkoK5AXnRBro-QrJ-64" value="&amp;nbsp;- estado: EstadoTarea" style="text;html=1;align=left;verticalAlign=middle;resizable=0;points=[];autosize=1;strokeColor=none;fillColor=none;" vertex="1" parent="aGA3AkoK5AXnRBro-QrJ-60">
          <mxGeometry y="52" width="660" height="30" as="geometry" />
        </mxCell>
        <mxCell id="aGA3AkoK5AXnRBro-QrJ-65" value="&amp;nbsp;- empleado: Empleado" style="text;html=1;align=left;verticalAlign=middle;resizable=0;points=[];autosize=1;strokeColor=none;fillColor=none;" vertex="1" parent="aGA3AkoK5AXnRBro-QrJ-60">
          <mxGeometry y="82" width="660" height="30" as="geometry" />
        </mxCell>
        <mxCell id="aGA3AkoK5AXnRBro-QrJ-62" value="" style="line;strokeWidth=1;fillColor=none;align=left;verticalAlign=middle;spacingTop=-1;spacingLeft=3;spacingRight=3;rotatable=0;labelPosition=right;points=[];portConstraint=eastwest;strokeColor=inherit;" vertex="1" parent="aGA3AkoK5AXnRBro-QrJ-60">
          <mxGeometry y="112" width="660" height="8" as="geometry" />
        </mxCell>
        <mxCell id="aGA3AkoK5AXnRBro-QrJ-63" value="+ Tarea (nombre: String)" style="text;strokeColor=none;fillColor=none;align=left;verticalAlign=top;spacingLeft=4;spacingRight=4;overflow=hidden;rotatable=0;points=[[0,0.5],[1,0.5]];portConstraint=eastwest;whiteSpace=wrap;html=1;" vertex="1" parent="aGA3AkoK5AXnRBro-QrJ-60">
          <mxGeometry y="120" width="660" height="26" as="geometry" />
        </mxCell>
        <mxCell id="aGA3AkoK5AXnRBro-QrJ-66" value="&amp;nbsp;+ getEstado ( ) : EstadoTarea" style="text;html=1;align=left;verticalAlign=middle;resizable=0;points=[];autosize=1;strokeColor=none;fillColor=none;" vertex="1" parent="aGA3AkoK5AXnRBro-QrJ-60">
          <mxGeometry y="146" width="660" height="30" as="geometry" />
        </mxCell>
        <mxCell id="aGA3AkoK5AXnRBro-QrJ-67" value="&amp;nbsp;+ setEstado ( estado : EstadoTarea): void" style="text;html=1;align=left;verticalAlign=middle;resizable=0;points=[];autosize=1;strokeColor=none;fillColor=none;" vertex="1" parent="aGA3AkoK5AXnRBro-QrJ-60">
          <mxGeometry y="176" width="660" height="30" as="geometry" />
        </mxCell>
        <mxCell id="aGA3AkoK5AXnRBro-QrJ-68" value="&amp;nbsp;+ getNombre ( ): String" style="text;html=1;align=left;verticalAlign=middle;resizable=0;points=[];autosize=1;strokeColor=none;fillColor=none;" vertex="1" parent="aGA3AkoK5AXnRBro-QrJ-60">
          <mxGeometry y="206" width="660" height="30" as="geometry" />
        </mxCell>
        <mxCell id="aGA3AkoK5AXnRBro-QrJ-69" value="&amp;nbsp;+ getEmpleado ( ): Empleado" style="text;html=1;align=left;verticalAlign=middle;resizable=0;points=[];autosize=1;strokeColor=none;fillColor=none;" vertex="1" parent="aGA3AkoK5AXnRBro-QrJ-60">
          <mxGeometry y="236" width="660" height="30" as="geometry" />
        </mxCell>
        <mxCell id="aGA3AkoK5AXnRBro-QrJ-70" value="&amp;nbsp;+ asignarEmpleado (emplado : Empleado): void" style="text;html=1;align=left;verticalAlign=middle;resizable=0;points=[];autosize=1;strokeColor=none;fillColor=none;" vertex="1" parent="aGA3AkoK5AXnRBro-QrJ-60">
          <mxGeometry y="266" width="660" height="30" as="geometry" />
        </mxCell>
        <mxCell id="aGA3AkoK5AXnRBro-QrJ-71" value="&amp;nbsp;# noticiarEmpleado ( ): void" style="text;html=1;align=left;verticalAlign=middle;resizable=0;points=[];autosize=1;strokeColor=none;fillColor=none;" vertex="1" parent="aGA3AkoK5AXnRBro-QrJ-60">
          <mxGeometry y="296" width="660" height="30" as="geometry" />
        </mxCell>
        <mxCell id="aGA3AkoK5AXnRBro-QrJ-73" value="Tester" style="swimlane;fontStyle=1;align=center;verticalAlign=top;childLayout=stackLayout;horizontal=1;startSize=26;horizontalStack=0;resizeParent=1;resizeParentMax=0;resizeLast=0;collapsible=1;marginBottom=0;whiteSpace=wrap;html=1;" vertex="1" parent="WIyWlLk6GJQsqaUBKTNV-1">
          <mxGeometry x="-2160" y="1280" width="200" height="86" as="geometry" />
        </mxCell>
        <mxCell id="aGA3AkoK5AXnRBro-QrJ-74" value="&amp;nbsp;+ Tester (nombre: String)" style="text;strokeColor=none;fillColor=none;align=left;verticalAlign=top;spacingLeft=4;spacingRight=4;overflow=hidden;rotatable=0;points=[[0,0.5],[1,0.5]];portConstraint=eastwest;whiteSpace=wrap;html=1;" vertex="1" parent="aGA3AkoK5AXnRBro-QrJ-73">
          <mxGeometry y="26" width="200" height="26" as="geometry" />
        </mxCell>
        <mxCell id="aGA3AkoK5AXnRBro-QrJ-75" value="" style="line;strokeWidth=1;fillColor=none;align=left;verticalAlign=middle;spacingTop=-1;spacingLeft=3;spacingRight=3;rotatable=0;labelPosition=right;points=[];portConstraint=eastwest;strokeColor=inherit;" vertex="1" parent="aGA3AkoK5AXnRBro-QrJ-73">
          <mxGeometry y="52" width="200" height="8" as="geometry" />
        </mxCell>
        <mxCell id="aGA3AkoK5AXnRBro-QrJ-76" value="&amp;nbsp;+ actualizar(tarea : Tarea): void" style="text;strokeColor=none;fillColor=none;align=left;verticalAlign=top;spacingLeft=4;spacingRight=4;overflow=hidden;rotatable=0;points=[[0,0.5],[1,0.5]];portConstraint=eastwest;whiteSpace=wrap;html=1;" vertex="1" parent="aGA3AkoK5AXnRBro-QrJ-73">
          <mxGeometry y="60" width="200" height="26" as="geometry" />
        </mxCell>
        <mxCell id="aGA3AkoK5AXnRBro-QrJ-77" value="Desarrollador" style="swimlane;fontStyle=1;align=center;verticalAlign=top;childLayout=stackLayout;horizontal=1;startSize=26;horizontalStack=0;resizeParent=1;resizeParentMax=0;resizeLast=0;collapsible=1;marginBottom=0;whiteSpace=wrap;html=1;" vertex="1" parent="WIyWlLk6GJQsqaUBKTNV-1">
          <mxGeometry x="-1840" y="1280" width="200" height="86" as="geometry" />
        </mxCell>
        <mxCell id="aGA3AkoK5AXnRBro-QrJ-78" value="&amp;nbsp;+ Desarrollador (nombre: String)" style="text;strokeColor=none;fillColor=none;align=left;verticalAlign=top;spacingLeft=4;spacingRight=4;overflow=hidden;rotatable=0;points=[[0,0.5],[1,0.5]];portConstraint=eastwest;whiteSpace=wrap;html=1;" vertex="1" parent="aGA3AkoK5AXnRBro-QrJ-77">
          <mxGeometry y="26" width="200" height="26" as="geometry" />
        </mxCell>
        <mxCell id="aGA3AkoK5AXnRBro-QrJ-79" value="" style="line;strokeWidth=1;fillColor=none;align=left;verticalAlign=middle;spacingTop=-1;spacingLeft=3;spacingRight=3;rotatable=0;labelPosition=right;points=[];portConstraint=eastwest;strokeColor=inherit;" vertex="1" parent="aGA3AkoK5AXnRBro-QrJ-77">
          <mxGeometry y="52" width="200" height="8" as="geometry" />
        </mxCell>
        <mxCell id="aGA3AkoK5AXnRBro-QrJ-80" value="&amp;nbsp;+ actualizar(tarea : Tarea): void" style="text;strokeColor=none;fillColor=none;align=left;verticalAlign=top;spacingLeft=4;spacingRight=4;overflow=hidden;rotatable=0;points=[[0,0.5],[1,0.5]];portConstraint=eastwest;whiteSpace=wrap;html=1;" vertex="1" parent="aGA3AkoK5AXnRBro-QrJ-77">
          <mxGeometry y="60" width="200" height="26" as="geometry" />
        </mxCell>
        <mxCell id="aGA3AkoK5AXnRBro-QrJ-81" value="" style="endArrow=open;endFill=1;endSize=12;html=1;rounded=0;exitX=0.5;exitY=0;exitDx=0;exitDy=0;entryX=0.5;entryY=1;entryDx=0;entryDy=0;" edge="1" parent="WIyWlLk6GJQsqaUBKTNV-1" source="aGA3AkoK5AXnRBro-QrJ-77" target="aGA3AkoK5AXnRBro-QrJ-0">
          <mxGeometry width="160" relative="1" as="geometry">
            <mxPoint x="-2050" y="1290" as="sourcePoint" />
            <mxPoint x="-1910" y="1126" as="targetPoint" />
            <Array as="points">
              <mxPoint x="-1740" y="1200" />
              <mxPoint x="-1870" y="1200" />
            </Array>
          </mxGeometry>
        </mxCell>
        <mxCell id="aGA3AkoK5AXnRBro-QrJ-82" value="" style="endArrow=none;html=1;edgeStyle=orthogonalEdgeStyle;rounded=0;entryX=-0.003;entryY=0.037;entryDx=0;entryDy=0;entryPerimeter=0;" edge="1" parent="WIyWlLk6GJQsqaUBKTNV-1" target="aGA3AkoK5AXnRBro-QrJ-43">
          <mxGeometry relative="1" as="geometry">
            <mxPoint x="-1580" y="940" as="sourcePoint" />
            <mxPoint x="-1420" y="940" as="targetPoint" />
          </mxGeometry>
        </mxCell>
        <mxCell id="aGA3AkoK5AXnRBro-QrJ-83" value="&lt;font style=&quot;font-size: 48px;&quot;&gt;*&lt;/font&gt;" style="edgeLabel;resizable=0;html=1;align=left;verticalAlign=bottom;" connectable="0" vertex="1" parent="aGA3AkoK5AXnRBro-QrJ-82">
          <mxGeometry x="-1" relative="1" as="geometry" />
        </mxCell>
        <mxCell id="aGA3AkoK5AXnRBro-QrJ-84" value="&lt;font style=&quot;font-size: 24px;&quot;&gt;1&lt;/font&gt;" style="edgeLabel;resizable=0;html=1;align=right;verticalAlign=bottom;" connectable="0" vertex="1" parent="aGA3AkoK5AXnRBro-QrJ-82">
          <mxGeometry x="1" relative="1" as="geometry" />
        </mxCell>
        <mxCell id="aGA3AkoK5AXnRBro-QrJ-85" value="" style="endArrow=none;html=1;edgeStyle=orthogonalEdgeStyle;rounded=0;exitX=0.5;exitY=0;exitDx=0;exitDy=0;entryX=0.5;entryY=0;entryDx=0;entryDy=0;" edge="1" parent="WIyWlLk6GJQsqaUBKTNV-1" source="aGA3AkoK5AXnRBro-QrJ-43" target="aGA3AkoK5AXnRBro-QrJ-60">
          <mxGeometry relative="1" as="geometry">
            <mxPoint x="-860" y="560" as="sourcePoint" />
            <mxPoint x="-700" y="560" as="targetPoint" />
            <Array as="points">
              <mxPoint x="-1060" y="570" />
              <mxPoint x="-350" y="570" />
            </Array>
          </mxGeometry>
        </mxCell>
        <mxCell id="aGA3AkoK5AXnRBro-QrJ-86" value="&lt;font style=&quot;font-size: 24px;&quot;&gt;1&lt;/font&gt;" style="edgeLabel;resizable=0;html=1;align=left;verticalAlign=bottom;" connectable="0" vertex="1" parent="aGA3AkoK5AXnRBro-QrJ-85">
          <mxGeometry x="-1" relative="1" as="geometry" />
        </mxCell>
        <mxCell id="aGA3AkoK5AXnRBro-QrJ-87" value="&lt;font style=&quot;font-size: 48px;&quot;&gt;*&lt;/font&gt;" style="edgeLabel;resizable=0;html=1;align=right;verticalAlign=bottom;" connectable="0" vertex="1" parent="aGA3AkoK5AXnRBro-QrJ-85">
          <mxGeometry x="1" relative="1" as="geometry" />
        </mxCell>
        <mxCell id="aGA3AkoK5AXnRBro-QrJ-88" value="" style="endArrow=none;html=1;edgeStyle=orthogonalEdgeStyle;rounded=0;exitX=0.522;exitY=1.096;exitDx=0;exitDy=0;exitPerimeter=0;entryX=-0.001;entryY=0.507;entryDx=0;entryDy=0;entryPerimeter=0;" edge="1" parent="WIyWlLk6GJQsqaUBKTNV-1" source="aGA3AkoK5AXnRBro-QrJ-58" target="SfpVanDIu_7wecpVr07M-18">
          <mxGeometry relative="1" as="geometry">
            <mxPoint x="-1020" y="1240" as="sourcePoint" />
            <mxPoint x="-860" y="1240" as="targetPoint" />
            <Array as="points">
              <mxPoint x="-1045" y="1240" />
              <mxPoint x="-870" y="1240" />
              <mxPoint x="-870" y="1321" />
            </Array>
          </mxGeometry>
        </mxCell>
        <mxCell id="aGA3AkoK5AXnRBro-QrJ-89" value="&lt;font style=&quot;font-size: 24px;&quot;&gt;1&lt;/font&gt;" style="edgeLabel;resizable=0;html=1;align=left;verticalAlign=bottom;" connectable="0" vertex="1" parent="aGA3AkoK5AXnRBro-QrJ-88">
          <mxGeometry x="-1" relative="1" as="geometry">
            <mxPoint x="5" y="35" as="offset" />
          </mxGeometry>
        </mxCell>
        <mxCell id="aGA3AkoK5AXnRBro-QrJ-90" value="&lt;font style=&quot;font-size: 24px;&quot;&gt;1&lt;/font&gt;" style="edgeLabel;resizable=0;html=1;align=right;verticalAlign=bottom;" connectable="0" vertex="1" parent="aGA3AkoK5AXnRBro-QrJ-88">
          <mxGeometry x="1" relative="1" as="geometry" />
        </mxCell>
        <mxCell id="aGA3AkoK5AXnRBro-QrJ-91" value="" style="endArrow=none;html=1;edgeStyle=orthogonalEdgeStyle;rounded=0;exitX=0.491;exitY=1.111;exitDx=0;exitDy=0;exitPerimeter=0;" edge="1" parent="WIyWlLk6GJQsqaUBKTNV-1" source="SfpVanDIu_7wecpVr07M-1">
          <mxGeometry relative="1" as="geometry">
            <mxPoint x="-680" y="390" as="sourcePoint" />
            <mxPoint x="-637" y="420" as="targetPoint" />
            <Array as="points">
              <mxPoint x="-873" y="350" />
              <mxPoint x="-637" y="350" />
            </Array>
          </mxGeometry>
        </mxCell>
        <mxCell id="aGA3AkoK5AXnRBro-QrJ-94" value="" style="endArrow=none;html=1;edgeStyle=orthogonalEdgeStyle;rounded=0;exitX=0.575;exitY=1.111;exitDx=0;exitDy=0;exitPerimeter=0;" edge="1" parent="WIyWlLk6GJQsqaUBKTNV-1" source="SfpVanDIu_7wecpVr07M-11">
          <mxGeometry relative="1" as="geometry">
            <mxPoint x="-863" y="325" as="sourcePoint" />
            <mxPoint x="-590" y="420" as="targetPoint" />
            <Array as="points">
              <mxPoint x="-310" y="315" />
              <mxPoint x="-310" y="350" />
              <mxPoint x="-590" y="350" />
            </Array>
          </mxGeometry>
        </mxCell>
        <mxCell id="aGA3AkoK5AXnRBro-QrJ-95" value="" style="endArrow=none;html=1;edgeStyle=orthogonalEdgeStyle;rounded=0;entryX=0.75;entryY=0;entryDx=0;entryDy=0;" edge="1" parent="WIyWlLk6GJQsqaUBKTNV-1" target="aGA3AkoK5AXnRBro-QrJ-60">
          <mxGeometry relative="1" as="geometry">
            <mxPoint x="-420" y="460" as="sourcePoint" />
            <mxPoint x="-260" y="460" as="targetPoint" />
            <Array as="points">
              <mxPoint x="-185" y="460" />
            </Array>
          </mxGeometry>
        </mxCell>
        <mxCell id="aGA3AkoK5AXnRBro-QrJ-99" value="" style="endArrow=none;html=1;edgeStyle=orthogonalEdgeStyle;rounded=0;entryX=0.667;entryY=0;entryDx=0;entryDy=0;entryPerimeter=0;" edge="1" parent="WIyWlLk6GJQsqaUBKTNV-1" target="aGA3AkoK5AXnRBro-QrJ-60">
          <mxGeometry relative="1" as="geometry">
            <mxPoint x="-1930" y="810" as="sourcePoint" />
            <mxPoint x="-180" y="649.17" as="targetPoint" />
            <Array as="points">
              <mxPoint x="-1930" y="810" />
              <mxPoint x="-1930" y="530" />
              <mxPoint x="-240" y="530" />
            </Array>
          </mxGeometry>
        </mxCell>
        <mxCell id="aGA3AkoK5AXnRBro-QrJ-100" value="&lt;font style=&quot;font-size: 24px;&quot;&gt;1&lt;/font&gt;" style="edgeLabel;resizable=0;html=1;align=left;verticalAlign=bottom;" connectable="0" vertex="1" parent="aGA3AkoK5AXnRBro-QrJ-99">
          <mxGeometry x="-1" relative="1" as="geometry" />
        </mxCell>
        <mxCell id="aGA3AkoK5AXnRBro-QrJ-101" value="&lt;font style=&quot;font-size: 24px;&quot;&gt;1&lt;/font&gt;" style="edgeLabel;resizable=0;html=1;align=right;verticalAlign=bottom;" connectable="0" vertex="1" parent="aGA3AkoK5AXnRBro-QrJ-99">
          <mxGeometry x="1" relative="1" as="geometry" />
        </mxCell>
        <mxCell id="aGA3AkoK5AXnRBro-QrJ-102" value="" style="endArrow=none;html=1;edgeStyle=orthogonalEdgeStyle;rounded=0;exitX=0.5;exitY=0;exitDx=0;exitDy=0;entryX=0.264;entryY=1.061;entryDx=0;entryDy=0;entryPerimeter=0;" edge="1" parent="WIyWlLk6GJQsqaUBKTNV-1" source="aGA3AkoK5AXnRBro-QrJ-29" target="aGA3AkoK5AXnRBro-QrJ-58">
          <mxGeometry relative="1" as="geometry">
            <mxPoint x="-1390" y="1190" as="sourcePoint" />
            <mxPoint x="-1230" y="1190" as="targetPoint" />
          </mxGeometry>
        </mxCell>
        <mxCell id="aGA3AkoK5AXnRBro-QrJ-103" value="&lt;font style=&quot;font-size: 24px;&quot;&gt;1&lt;/font&gt;" style="edgeLabel;resizable=0;html=1;align=left;verticalAlign=bottom;" connectable="0" vertex="1" parent="aGA3AkoK5AXnRBro-QrJ-102">
          <mxGeometry x="-1" relative="1" as="geometry" />
        </mxCell>
        <mxCell id="aGA3AkoK5AXnRBro-QrJ-104" value="&lt;font style=&quot;font-size: 48px;&quot;&gt;*&lt;/font&gt;" style="edgeLabel;resizable=0;html=1;align=right;verticalAlign=bottom;" connectable="0" vertex="1" parent="aGA3AkoK5AXnRBro-QrJ-102">
          <mxGeometry x="1" relative="1" as="geometry">
            <mxPoint x="-4" y="66" as="offset" />
          </mxGeometry>
        </mxCell>
        <mxCell id="aGA3AkoK5AXnRBro-QrJ-105" value="" style="endArrow=none;html=1;edgeStyle=orthogonalEdgeStyle;rounded=0;exitX=0.304;exitY=-0.006;exitDx=0;exitDy=0;exitPerimeter=0;entryX=0.9;entryY=1.01;entryDx=0;entryDy=0;entryPerimeter=0;" edge="1" parent="WIyWlLk6GJQsqaUBKTNV-1" source="aGA3AkoK5AXnRBro-QrJ-29" target="aGA3AkoK5AXnRBro-QrJ-11">
          <mxGeometry relative="1" as="geometry">
            <mxPoint x="-1580" y="1130" as="sourcePoint" />
            <mxPoint x="-1420" y="1130" as="targetPoint" />
          </mxGeometry>
        </mxCell>
        <mxCell id="aGA3AkoK5AXnRBro-QrJ-106" value="&lt;font style=&quot;font-size: 24px;&quot;&gt;1&lt;/font&gt;" style="edgeLabel;resizable=0;html=1;align=left;verticalAlign=bottom;" connectable="0" vertex="1" parent="aGA3AkoK5AXnRBro-QrJ-105">
          <mxGeometry x="-1" relative="1" as="geometry" />
        </mxCell>
        <mxCell id="aGA3AkoK5AXnRBro-QrJ-107" value="&lt;font style=&quot;font-size: 48px;&quot;&gt;*&lt;/font&gt;" style="edgeLabel;resizable=0;html=1;align=right;verticalAlign=bottom;" connectable="0" vertex="1" parent="aGA3AkoK5AXnRBro-QrJ-105">
          <mxGeometry x="1" relative="1" as="geometry">
            <mxPoint x="28" y="68" as="offset" />
          </mxGeometry>
        </mxCell>
        <mxCell id="aGA3AkoK5AXnRBro-QrJ-108" value="" style="endArrow=none;html=1;edgeStyle=orthogonalEdgeStyle;rounded=0;entryX=0.522;entryY=1.062;entryDx=0;entryDy=0;entryPerimeter=0;exitX=1.005;exitY=0.41;exitDx=0;exitDy=0;exitPerimeter=0;" edge="1" parent="WIyWlLk6GJQsqaUBKTNV-1" source="SfpVanDIu_7wecpVr07M-29" target="SfpVanDIu_7wecpVr07M-9">
          <mxGeometry relative="1" as="geometry">
            <mxPoint x="-1480" y="410" as="sourcePoint" />
            <mxPoint x="-1320" y="410" as="targetPoint" />
          </mxGeometry>
        </mxCell>
        <mxCell id="aGA3AkoK5AXnRBro-QrJ-111" value="" style="endArrow=none;html=1;edgeStyle=orthogonalEdgeStyle;rounded=0;entryX=0.75;entryY=0;entryDx=0;entryDy=0;exitX=0.453;exitY=1.075;exitDx=0;exitDy=0;exitPerimeter=0;" edge="1" parent="WIyWlLk6GJQsqaUBKTNV-1" source="SfpVanDIu_7wecpVr07M-13" target="SfpVanDIu_7wecpVr07M-5">
          <mxGeometry relative="1" as="geometry">
            <mxPoint x="-1508.76" y="212" as="sourcePoint" />
            <mxPoint x="-1262.76" y="162" as="targetPoint" />
            <Array as="points">
              <mxPoint x="-1748" y="200" />
              <mxPoint x="-1248" y="200" />
            </Array>
          </mxGeometry>
        </mxCell>
        <mxCell id="aGA3AkoK5AXnRBro-QrJ-113" value="" style="endArrow=none;html=1;edgeStyle=orthogonalEdgeStyle;rounded=0;exitX=0.72;exitY=0.978;exitDx=0;exitDy=0;exitPerimeter=0;entryX=0.41;entryY=0.001;entryDx=0;entryDy=0;entryPerimeter=0;" edge="1" parent="WIyWlLk6GJQsqaUBKTNV-1" source="SfpVanDIu_7wecpVr07M-9" target="aGA3AkoK5AXnRBro-QrJ-43">
          <mxGeometry relative="1" as="geometry">
            <mxPoint x="-1280" y="640" as="sourcePoint" />
            <mxPoint x="-1120" y="660" as="targetPoint" />
            <Array as="points">
              <mxPoint x="-1258" y="410" />
              <mxPoint x="-1180" y="410" />
              <mxPoint x="-1180" y="640" />
              <mxPoint x="-1119" y="640" />
            </Array>
          </mxGeometry>
        </mxCell>
        <mxCell id="aGA3AkoK5AXnRBro-QrJ-116" value="" style="endArrow=none;html=1;edgeStyle=orthogonalEdgeStyle;rounded=0;exitX=0;exitY=0.5;exitDx=0;exitDy=0;entryX=0;entryY=0.25;entryDx=0;entryDy=0;" edge="1" parent="WIyWlLk6GJQsqaUBKTNV-1" source="aGA3AkoK5AXnRBro-QrJ-7" target="aGA3AkoK5AXnRBro-QrJ-25">
          <mxGeometry relative="1" as="geometry">
            <mxPoint x="-1850" y="1100" as="sourcePoint" />
            <mxPoint x="-1690" y="1100" as="targetPoint" />
            <Array as="points">
              <mxPoint x="-2230" y="969" />
              <mxPoint x="-2230" y="1511" />
            </Array>
          </mxGeometry>
        </mxCell>
        <mxCell id="aGA3AkoK5AXnRBro-QrJ-119" value="" style="endArrow=none;html=1;edgeStyle=orthogonalEdgeStyle;rounded=0;exitX=1.001;exitY=0.036;exitDx=0;exitDy=0;exitPerimeter=0;entryX=0.205;entryY=0.008;entryDx=0;entryDy=0;entryPerimeter=0;" edge="1" parent="WIyWlLk6GJQsqaUBKTNV-1" source="aGA3AkoK5AXnRBro-QrJ-42" target="aGA3AkoK5AXnRBro-QrJ-29">
          <mxGeometry relative="1" as="geometry">
            <mxPoint x="-1560" y="930" as="sourcePoint" />
            <mxPoint x="-1400" y="930" as="targetPoint" />
            <Array as="points">
              <mxPoint x="-1580" y="644" />
              <mxPoint x="-1471" y="644" />
            </Array>
          </mxGeometry>
        </mxCell>
        <mxCell id="aGA3AkoK5AXnRBro-QrJ-122" value="" style="endArrow=none;html=1;edgeStyle=orthogonalEdgeStyle;rounded=0;exitX=0.972;exitY=-0.025;exitDx=0;exitDy=0;entryX=0.25;entryY=0;entryDx=0;entryDy=0;exitPerimeter=0;" edge="1" parent="WIyWlLk6GJQsqaUBKTNV-1" source="aGA3AkoK5AXnRBro-QrJ-39" target="aGA3AkoK5AXnRBro-QrJ-43">
          <mxGeometry relative="1" as="geometry">
            <mxPoint x="-1540" y="580" as="sourcePoint" />
            <mxPoint x="-1380" y="580" as="targetPoint" />
            <Array as="points">
              <mxPoint x="-1588" y="560" />
              <mxPoint x="-1225" y="560" />
            </Array>
          </mxGeometry>
        </mxCell>
        <mxCell id="aGA3AkoK5AXnRBro-QrJ-125" value="" style="endArrow=none;html=1;edgeStyle=orthogonalEdgeStyle;rounded=0;entryX=0.51;entryY=0.99;entryDx=0;entryDy=0;entryPerimeter=0;exitX=0.755;exitY=0.004;exitDx=0;exitDy=0;exitPerimeter=0;" edge="1" parent="WIyWlLk6GJQsqaUBKTNV-1" source="aGA3AkoK5AXnRBro-QrJ-0" target="aGA3AkoK5AXnRBro-QrJ-42">
          <mxGeometry relative="1" as="geometry">
            <mxPoint x="-1720" y="810" as="sourcePoint" />
            <mxPoint x="-1840" y="900" as="targetPoint" />
          </mxGeometry>
        </mxCell>
        <mxCell id="aGA3AkoK5AXnRBro-QrJ-128" value="" style="endArrow=none;html=1;edgeStyle=orthogonalEdgeStyle;rounded=0;exitX=0.673;exitY=-0.008;exitDx=0;exitDy=0;exitPerimeter=0;entryX=0.603;entryY=-0.001;entryDx=0;entryDy=0;entryPerimeter=0;" edge="1" parent="WIyWlLk6GJQsqaUBKTNV-1" source="aGA3AkoK5AXnRBro-QrJ-39" target="aGA3AkoK5AXnRBro-QrJ-60">
          <mxGeometry relative="1" as="geometry">
            <mxPoint x="-1648" y="610" as="sourcePoint" />
            <mxPoint x="-1488" y="610" as="targetPoint" />
            <Array as="points">
              <mxPoint x="-1675" y="620" />
              <mxPoint x="-1675" y="550" />
              <mxPoint x="-282" y="550" />
            </Array>
          </mxGeometry>
        </mxCell>
      </root>
    </mxGraphModel>
  </diagram>
</mxfile>
